{
  "accessors": [
    {
      "bufferView": 2,
      "componentType": 5126,
      "count": 2314,
      "max": [
        0.04583092778921127,
        0.06874607503414154,
        0.1937033236026764
      ],
      "min": [
        0.005022175144404173,
        -0.06915663182735443,
        -0.1937033087015152
      ],
      "type": "VEC3"
    },
    {
      "bufferView": 2,
      "byteOffset": 27768,
      "componentType": 5126,
      "count": 2314,
      "max": [
        0.9999966621398926,
        0.9441989660263062,
        0.9920072555541992
      ],
      "min": [
        -0.9999966025352478,
        -0.9345236420631409,
        -0.9920066595077515
      ],
      "type": "VEC3"
    },
    {
      "bufferView": 1,
      "componentType": 5126,
      "count": 2314,
      "max": [
        0.0,
        0.0
      ],
      "min": [
        0.0,
        0.0
      ],
      "type": "VEC2"
    },
    {
      "bufferView": 0,
      "componentType": 5125,
      "count": 12288,
      "type": "SCALAR"
    },
    {
      "bufferView": 2,
      "byteOffset": 55536,
      "componentType": 5126,
      "count": 7312,
      "max": [
        0.9932278394699097,
        1.0056843757629395,
        0.9932278394699097
      ],
      "min": [
        -0.9932278394699097,
        0.3876469135284424,
        -0.9932278394699097
      ],
      "type": "VEC3"
    },
    {
      "bufferView": 2,
      "byteOffset": 143280,
      "componentType": 5126,
      "count": 7312,
      "max": [
        0.9999990463256836,
        1.0,
        0.9999990463256836
      ],
      "min": [
        -0.9999990463256836,
        -1.0,
        -0.9999989867210388
      ],
      "type": "VEC3"
    },
    {
      "bufferView": 1,
      "byteOffset": 18512,
      "componentType": 5126,
      "count": 7312,
      "max": [
        1.0000001192092896,
        0.8942388296127319
      ],
      "min": [
        0.0,
        0.7795746922492981
      ],
      "type": "VEC2"
    },
    {
      "bufferView": 0,
      "byteOffset": 49152,
      "componentType": 5125,
      "count": 32256,
      "type": "SCALAR"
    },
    {
      "bufferView": 2,
      "byteOffset": 231024,
      "componentType": 5126,
      "count": 9131,
      "max": [
        1.0149785280227661,
        46.393524169921875,
        1.407644271850586
      ],
      "min": [
        -1.0149785280227661,
        -0.8524603247642517,
        -1.407644271850586
      ],
      "type": "VEC3"
    },
    {
      "bufferView": 2,
      "byteOffset": 340596,
      "componentType": 5126,
      "count": 9131,
      "max": [
        1.0,
        0.15513618290424347,
        0.9999662041664124
      ],
      "min": [
        -1.0,
        -1.0,
        -0.9999660849571228
      ],
      "type": "VEC3"
    },
    {
      "bufferView": 1,
      "byteOffset": 77008,
      "componentType": 5126,
      "count": 9131,
      "max": [
        1.1762197017669678,
        1.1574519872665405
      ],
      "min": [
        0.06660718470811844,
        -0.010339094325900078
      ],
      "type": "VEC2"
    },
    {
      "bufferView": 0,
      "byteOffset": 178176,
      "componentType": 5125,
      "count": 49824,
      "type": "SCALAR"
    },
    {
      "bufferView": 2,
      "byteOffset": 450168,
      "componentType": 5126,
      "count": 12331,
      "max": [
        0.9932028651237488,
        3.445335626602173,
        0.9935951828956604
      ],
      "min": [
        -0.9935951828956604,
        -0.6746048927307129,
        -0.9935951232910156
      ],
      "type": "VEC3"
    },
    {
      "bufferView": 2,
      "byteOffset": 598140,
      "componentType": 5126,
      "count": 12331,
      "max": [
        1.0,
        0.9999999403953552,
        1.0
      ],
      "min": [
        -1.0,
        -1.0,
        -1.0
      ],
      "type": "VEC3"
    },
    {
      "bufferView": 1,
      "byteOffset": 150056,
      "componentType": 5126,
      "count": 12331,
      "max": [
        1.0000001192092896,
        1.0000001192092896
      ],
      "min": [
        0.0,
        0.010022183880209923
      ],
      "type": "VEC2"
    },
    {
      "bufferView": 0,
      "byteOffset": 377472,
      "componentType": 5125,
      "count": 62592,
      "type": "SCALAR"
    },
    {
      "bufferView": 2,
      "byteOffset": 746112,
      "componentType": 5126,
      "count": 120,
      "max": [
        0.8072891235351563,
        2.576265811920166,
        1.0513579845428467
      ],
      "min": [
        -0.8072891235351563,
        -2.1417548656463623,
        -1.0513579845428467
      ],
      "type": "VEC3"
    },
    {
      "bufferView": 2,
      "byteOffset": 747552,
      "componentType": 5126,
      "count": 120,
      "max": [
        0.983062207698822,
        0.8508671522140503,
        0.9914695620536804
      ],
      "min": [
        -0.983062207698822,
        -0.9914681315422058,
        -0.9914695620536804
      ],
      "type": "VEC3"
    },
    {
      "bufferView": 1,
      "byteOffset": 248704,
      "componentType": 5126,
      "count": 120,
      "max": [
        0.7426354289054871,
        0.9008097052574158
      ],
      "min": [
        0.06825175881385803,
        0.13543909788131714
      ],
      "type": "VEC2"
    },
    {
      "bufferView": 0,
      "byteOffset": 627840,
      "componentType": 5125,
      "count": 660,
      "type": "SCALAR"
    },
    {
      "bufferView": 2,
      "byteOffset": 748992,
      "componentType": 5126,
      "count": 25568,
      "max": [
        1.0,
        1.0,
        1.0
      ],
      "min": [
        -1.0,
        -1.0,
        -378.9996643066406
      ],
      "type": "VEC3"
    },
    {
      "bufferView": 2,
      "byteOffset": 1055808,
      "componentType": 5126,
      "count": 25568,
      "max": [
        0.9898731112480164,
        0.989874541759491,
        0.9898874759674072
      ],
      "min": [
        -0.9898731112480164,
        -0.989874541759491,
        -0.9898853898048401
      ],
      "type": "VEC3"
    },
    {
      "bufferView": 1,
      "byteOffset": 249664,
      "componentType": 5126,
      "count": 25568,
      "max": [
        0.875,
        1.0
      ],
      "min": [
        0.125,
        0.0
      ],
      "type": "VEC2"
    },
    {
      "bufferView": 0,
      "byteOffset": 630480,
      "componentType": 5125,
      "count": 122400,
      "type": "SCALAR"
    },
    {
      "bufferView": 2,
      "byteOffset": 1362624,
      "componentType": 5126,
      "count": 2314,
      "max": [
        0.04583092778921127,
        0.06874607503414154,
        0.1937033236026764
      ],
      "min": [
        0.005022175144404173,
        -0.06915663182735443,
        -0.1937033087015152
      ],
      "type": "VEC3"
    },
    {
      "bufferView": 2,
      "byteOffset": 1390392,
      "componentType": 5126,
      "count": 2314,
      "max": [
        0.9999966621398926,
        0.9441989660263062,
        0.9920072555541992
      ],
      "min": [
        -0.9999966025352478,
        -0.9345236420631409,
        -0.9920066595077515
      ],
      "type": "VEC3"
    },
    {
      "bufferView": 1,
      "byteOffset": 454208,
      "componentType": 5126,
      "count": 2314,
      "max": [
        0.0,
        0.0
      ],
      "min": [
        0.0,
        0.0
      ],
      "type": "VEC2"
    },
    {
      "bufferView": 0,
      "byteOffset": 1120080,
      "componentType": 5125,
      "count": 12288,
      "type": "SCALAR"
    },
    {
      "bufferView": 2,
      "byteOffset": 1418160,
      "componentType": 5126,
      "count": 7311,
      "max": [
        0.0028792282100766897,
        0.25575873255729675,
        0.9862918853759766
      ],
      "min": [
        -1.9835764169692993,
        -0.36227959394454956,
        -1.0001639127731323
      ],
      "type": "VEC3"
    },
    {
      "bufferView": 2,
      "byteOffset": 1505892,
      "componentType": 5126,
      "count": 7311,
      "max": [
        0.9999989867210388,
        1.0,
        0.9999990463256836
      ],
      "min": [
        -0.9999990463256836,
        -1.0,
        -0.9999989867210388
      ],
      "type": "VEC3"
    },
    {
      "bufferView": 1,
      "byteOffset": 472720,
      "componentType": 5126,
      "count": 7311,
      "max": [
        1.0000001192092896,
        0.8942388296127319
      ],
      "min": [
        0.0,
        0.7795746922492981
      ],
      "type": "VEC2"
    },
    {
      "bufferView": 0,
      "byteOffset": 1169232,
      "componentType": 5125,
      "count": 32256,
      "type": "SCALAR"
    },
    {
      "bufferView": 2,
      "byteOffset": 1593624,
      "componentType": 5126,
      "count": 9131,
      "max": [
        1.0149785280227661,
        46.393524169921875,
        1.407644271850586
      ],
      "min": [
        -1.0149785280227661,
        -0.8524603247642517,
        -1.407644271850586
      ],
      "type": "VEC3"
    },
    {
      "bufferView": 2,
      "byteOffset": 1703196,
      "componentType": 5126,
      "count": 9131,
      "max": [
        1.0,
        0.15513618290424347,
        0.9999662041664124
      ],
      "min": [
        -1.0,
        -1.0,
        -0.9999660849571228
      ],
      "type": "VEC3"
    },
    {
      "bufferView": 1,
      "byteOffset": 531208,
      "componentType": 5126,
      "count": 9131,
      "max": [
        1.1762197017669678,
        1.1574519872665405
      ],
      "min": [
        0.06660718470811844,
        -0.010339094325900078
      ],
      "type": "VEC2"
    },
    {
      "bufferView": 0,
      "byteOffset": 1298256,
      "componentType": 5125,
      "count": 49824,
      "type": "SCALAR"
    },
    {
      "bufferView": 2,
      "byteOffset": 1812768,
      "componentType": 5126,
      "count": 12331,
      "max": [
        0.9932028651237488,
        3.445335626602173,
        0.9935951828956604
      ],
      "min": [
        -0.9935951828956604,
        -0.6746048927307129,
        -0.9935951232910156
      ],
      "type": "VEC3"
    },
    {
      "bufferView": 2,
      "byteOffset": 1960740,
      "componentType": 5126,
      "count": 12331,
      "max": [
        1.0,
        0.9999999403953552,
        1.0
      ],
      "min": [
        -1.0,
        -1.0,
        -1.0
      ],
      "type": "VEC3"
    },
    {
      "bufferView": 1,
      "byteOffset": 604256,
      "componentType": 5126,
      "count": 12331,
      "max": [
        1.0000001192092896,
        1.0000001192092896
      ],
      "min": [
        0.0,
        0.010022183880209923
      ],
      "type": "VEC2"
    },
    {
      "bufferView": 0,
      "byteOffset": 1497552,
      "componentType": 5125,
      "count": 62592,
      "type": "SCALAR"
    },
    {
      "bufferView": 2,
      "byteOffset": 2108712,
      "componentType": 5126,
      "count": 25568,
      "max": [
        1.0,
        1.0,
        1.0
      ],
      "min": [
        -1.0,
        -1.0,
        -378.9996643066406
      ],
      "type": "VEC3"
    },
    {
      "bufferView": 2,
      "byteOffset": 2415528,
      "componentType": 5126,
      "count": 25568,
      "max": [
        0.9898731112480164,
        0.989874541759491,
        0.9898874759674072
      ],
      "min": [
        -0.9898731112480164,
        -0.989874541759491,
        -0.9898853898048401
      ],
      "type": "VEC3"
    },
    {
      "bufferView": 1,
      "byteOffset": 702904,
      "componentType": 5126,
      "count": 25568,
      "max": [
        0.875,
        1.0
      ],
      "min": [
        0.125,
        0.0
      ],
      "type": "VEC2"
    },
    {
      "bufferView": 0,
      "byteOffset": 1747920,
      "componentType": 5125,
      "count": 122400,
      "type": "SCALAR"
    }
  ],
  "asset": {
    "extras": {
      "author": "nurhadimli (https://sketchfab.com/nurhadimli)",
      "license": "CC-BY-4.0 (http://creativecommons.org/licenses/by/4.0/)",
      "source": "https://sketchfab.com/3d-models/cream-tube-8aaf1b896afb41169ab7eb8f72842cc3",
      "title": "Cream Tube"
    },
    "generator": "Sketchfab-15.49.0",
    "version": "2.0"
  },
  "bufferViews": [
    {
      "buffer": 0,
      "byteLength": 2237520,
      "name": "floatBufferViews",
      "target": 34963
    },
    {
      "buffer": 0,
      "byteLength": 907448,
      "byteOffset": 2237520,
      "byteStride": 8,
      "name": "floatBufferViews",
      "target": 34962
    },
    {
      "buffer": 0,
      "byteLength": 2722344,
      "byteOffset": 3144968,
      "byteStride": 12,
      "name": "floatBufferViews",
      "target": 34962
    }
  ],
  "buffers": [
    {
      "byteLength": 5867312,
      "uri": "scene.bin"
    }
  ],
  "images": [
    {
      "uri": "textures/Material.053_baseColor.png"
    },
    {
      "uri": "textures/Material.055_baseColor.png"
    }
  ],
  "materials": [
    {
      "doubleSided": true,
      "name": "Material.052",
      "pbrMetallicRoughness": {
        "baseColorFactor": [
          0.806951,
          0.783537,
          0.896269,
          1.0
        ],
        "metallicFactor": 0.0,
        "roughnessFactor": 0.5
      }
    },
    {
      "doubleSided": true,
      "name": "Material.053",
      "pbrMetallicRoughness": {
        "baseColorTexture": {
          "index": 0
        },
        "metallicFactor": 0.0,
        "roughnessFactor": 0.5
      }
    },
    {
      "doubleSided": true,
      "name": "Material.055",
      "pbrMetallicRoughness": {
        "baseColorTexture": {
          "index": 1
        },
        "metallicFactor": 0.0,
        "roughnessFactor": 0.5
      }
    },
    {
      "doubleSided": true,
      "name": "Material.057",
      "pbrMetallicRoughness": {
        "baseColorFactor": [
          0.806951,
          0.783537,
          0.896269,
          1.0
        ],
        "metallicFactor": 0.0,
        "roughnessFactor": 0.5
      }
    }
  ],
  "meshes": [
    {
      "name": "Object_0",
      "primitives": [
        {
          "attributes": {
            "NORMAL": 1,
            "POSITION": 0,
            "TEXCOORD_0": 2
          },
          "indices": 3,
          "material": 0,
          "mode": 4
        }
      ]
    },
    {
      "name": "Object_1",
      "primitives": [
        {
          "attributes": {
            "NORMAL": 5,
            "POSITION": 4,
            "TEXCOORD_0": 6
          },
          "indices": 7,
          "material": 0,
          "mode": 4
        }
      ]
    },
    {
      "name": "Object_2",
      "primitives": [
        {
          "attributes": {
            "NORMAL": 9,
            "POSITION": 8,
            "TEXCOORD_0": 10
          },
          "indices": 11,
          "material": 1,
          "mode": 4
        }
      ]
    },
    {
      "name": "Object_3",
      "primitives": [
        {
          "attributes": {
            "NORMAL": 13,
            "POSITION": 12,
            "TEXCOORD_0": 14
          },
          "indices": 15,
          "material": 0,
          "mode": 4
        }
      ]
    },
    {
      "name": "Object_4",
      "primitives": [
        {
          "attributes": {
            "NORMAL": 17,
            "POSITION": 16,
            "TEXCOORD_0": 18
          },
          "indices": 19,
          "material": 2,
          "mode": 4
        }
      ]
    },
    {
      "name": "Object_5",
      "primitives": [
        {
          "attributes": {
            "NORMAL": 21,
            "POSITION": 20,
            "TEXCOORD_0": 22
          },
          "indices": 23,
          "material": 3,
          "mode": 4
        }
      ]
    },
    {
      "name": "Object_6",
      "primitives": [
        {
          "attributes": {
            "NORMAL": 25,
            "POSITION": 24,
            "TEXCOORD_0": 26
          },
          "indices": 27,
          "material": 0,
          "mode": 4
        }
      ]
    },
    {
      "name": "Object_7",
      "primitives": [
        {
          "attributes": {
            "NORMAL": 29,
            "POSITION": 28,
            "TEXCOORD_0": 30
          },
          "indices": 31,
          "material": 0,
          "mode": 4
        }
      ]
    },
    {
      "name": "Object_8",
      "primitives": [
        {
          "attributes": {
            "NORMAL": 33,
            "POSITION": 32,
            "TEXCOORD_0": 34
          },
          "indices": 35,
          "material": 1,
          "mode": 4
        }
      ]
    },
    {
      "name": "Object_9",
      "primitives": [
        {
          "attributes": {
            "NORMAL": 37,
            "POSITION": 36,
            "TEXCOORD_0": 38
          },
          "indices": 39,
          "material": 0,
          "mode": 4
        }
      ]
    },
    {
      "name": "Object_10",
      "primitives": [
        {
          "attributes": {
            "NORMAL": 41,
            "POSITION": 40,
            "TEXCOORD_0": 42
          },
          "indices": 43,
          "material": 3,
          "mode": 4
        }
      ]
    }
  ],
  "nodes": [
    {
      "children": [
        1
      ],
      "matrix": [
        1.0,
        0.0,
        0.0,
        0.0,
        0.0,
        2.220446049250313e-16,
        -1.0,
        0.0,
        0.0,
        1.0,
        2.220446049250313e-16,
        0.0,
        0.0,
        0.0,
        0.0,
        1.0
      ],
      "name": "Sketchfab_model"
    },
    {
      "children": [
        2
      ],
      "name": "root"
    },
    {
      "children": [
        3,
        5,
        7,
        9,
        11,
        13,
        15,
        17,
        19,
        21,
        23
      ],
      "matrix": [
        1.0,
        0.0,
        0.0,
        0.0,
        0.0,
        2.220446049250313e-16,
        1.0,
        0.0,
        0.0,
        -1.0,
        2.220446049250313e-16,
        0.0,
        0.0,
        0.0,
        0.0,
        1.0
      ],
      "name": "GLTF_SceneRootNode"
    },
    {
      "children": [
        4
      ],
      "matrix": [
        -0.642662286758374,
        2.502619278619376e-07,
        0.0,
        0.0,
        -9.387637777604065e-08,
        -0.2410706579685028,
        0.0,
        0.0,
        0.0,
        0.0,
        0.6150801181793213,
        0.0,
        0.20881766080856323,
        0.23283934593200684,
        0.9359049797058105,
        1.0
      ],
      "name": "Cylinder.007_0"
    },
    {
      "mesh": 0,
      "name": "Object_4"
    },
    {
      "children": [
        6
      ],
      "matrix": [
        -0.642662286758374,
        2.502619278619376e-07,
        0.0,
        0.0,
        -1.380017357285577e-07,
        -0.35438275337216546,
        0.0,
        0.0,
        0.0,
        0.0,
        0.6426622867584229,
        0.0,
        0.826999843120575,
        0.36766958236694336,
        0.9359050393104553,
        1.0
      ],
      "name": "Cylinder.006_1"
    },
    {
      "mesh": 1,
      "name": "Object_6"
    },
    {
      "children": [
        8
      ],
      "matrix": [
        0.6385262608528137,
        0.0,
        0.0,
        0.0,
        0.0,
        0.0737377405166626,
        0.0,
        0.0,
        0.0,
        0.0,
        0.6385262608528137,
        0.0,
        0.826999843120575,
        0.8482060432434082,
        0.9359052181243896,
        1.0
      ],
      "name": "Cylinder.004_2"
    },
    {
      "mesh": 2,
      "name": "Object_8"
    },
    {
      "children": [
        10
      ],
      "matrix": [
        0.6426622867584229,
        0.0,
        0.0,
        0.0,
        0.0,
        0.3543827533721924,
        0.0,
        0.0,
        0.0,
        0.0,
        0.6426622867584229,
        0.0,
        0.826999843120575,
        0.36766958236694336,
        0.9359050393104553,
        1.0
      ],
      "name": "Cylinder.002_3"
    },
    {
      "mesh": 3,
      "name": "Object_10"
    },
    {
      "children": [
        12
      ],
      "matrix": [
        1.0,
        0.0,
        0.0,
        0.0,
        0.0,
        1.0,
        0.0,
        0.0,
        0.0,
        0.0,
        1.0,
        0.0,
        -0.513195276260376,
        2.170943260192871,
        -1.1507831811904907,
        1.0
      ],
      "name": "Cube.003_4"
    },
    {
      "mesh": 4,
      "name": "Object_12"
    },
    {
      "children": [
        14
      ],
      "matrix": [
        0.005487458314746618,
        0.0,
        0.0,
        0.0,
        0.0,
        0.06417933106422424,
        0.0,
        0.0,
        0.0,
        0.0,
        0.004666736349463463,
        0.0,
        0.826999843120575,
        4.195650100708008,
        1.8170690536499023,
        1.0
      ],
      "name": "Cube.001_5"
    },
    {
      "mesh": 5,
      "name": "Object_14"
    },
    {
      "children": [
        16
      ],
      "matrix": [
        0.06934838740178555,
        -0.6372108616014931,
        0.046561076484763195,
        0.0,
        0.19844626200182378,
        0.03133285933898786,
        0.1332381145037801,
        0.0,
        -0.34285893507208776,
        9.211447840255082e-08,
        0.5106577155205954,
        0.0,
        2.305716037750244,
        0.16896428167819977,
        -3.852599620819092,
        1.0
      ],
      "name": "Cylinder.001_6"
    },
    {
      "mesh": 6,
      "name": "Object_16"
    },
    {
      "children": [
        18
      ],
      "matrix": [
        -0.3410965182986673,
        -0.49418672889071,
        -0.22901409785074825,
        0.0,
        0.226245005256813,
        -0.2265523862647299,
        0.1519024350093093,
        0.0,
        -0.358233736309407,
        2.7069781826645966e-07,
        0.5335573118150423,
        0.0,
        2.383650302886963,
        0.07584893703460693,
        -3.794905185699463,
        1.0
      ],
      "name": "Cylinder.003_7"
    },
    {
      "mesh": 7,
      "name": "Object_18"
    },
    {
      "children": [
        20
      ],
      "matrix": [
        -0.06890197843967935,
        0.6331099337054995,
        -0.04626137707841637,
        0.0,
        -0.060699959247944066,
        -0.00958395899183638,
        -0.04075435012171574,
        0.0,
        -0.3559283327737023,
        1.1323921753608879e-07,
        0.530123389153502,
        0.0,
        1.7324469089508057,
        0.7019213438034058,
        -4.2374958992004395,
        1.0
      ],
      "name": "Cylinder.005_8"
    },
    {
      "mesh": 8,
      "name": "Object_20"
    },
    {
      "children": [
        22
      ],
      "matrix": [
        -0.06934828798909963,
        0.6372108755890912,
        -0.04656103312352551,
        0.0,
        -0.2917233229163758,
        -0.046060399355004264,
        -0.19586494930319093,
        0.0,
        -0.3582338429698313,
        1.139727196110616e-07,
        0.5335572402026033,
        0.0,
        2.128018617630005,
        0.7643783092498779,
        -3.9719064235687256,
        1.0
      ],
      "name": "Cylinder.008_9"
    },
    {
      "mesh": 9,
      "name": "Object_22"
    },
    {
      "children": [
        24
      ],
      "matrix": [
        -0.0005921396779927671,
        0.005440910707761401,
        -0.00039756763952281837,
        0.0,
        -0.05283159956980795,
        -0.008341618182672995,
        -0.0354714819092925,
        0.0,
        -0.002601339663212138,
        8.276207339611367e-10,
        0.003874462557826859,
        0.0,
        -1.5143063068389893,
        0.2668415904045105,
        -5.356036186218262,
        1.0
      ],
      "name": "Cube.002_10"
    },
    {
      "mesh": 10,
      "name": "Object_24"
    }
  ],
  "samplers": [
    {
      "magFilter": 9729,
      "minFilter": 9987,
      "wrapS": 10497,
      "wrapT": 10497
    }
  ],
  "scene": 0,
  "scenes": [
    {
      "name": "Sketchfab_Scene",
      "nodes": [
        0
      ]
    }
  ],
  "textures": [
    {
      "sampler": 0,
      "source": 0
    },
    {
      "sampler": 0,
      "source": 1
    }
  ]
}
